<?xml version="1.0" encoding="utf-8"?>
<!-- Generator: Fusion 360, Shaper Origin Export Add-In, Version 1.5.0  -->
<svg enable-background="new 0 0 25.6 25" height="25cm" shaper:fusionaddin="version:1.5.0" version="1.1" viewBox="0 0 25.6 25" width="25.6cm" x="0cm" xml:space="preserve" xmlns="http://www.w3.org/2000/svg" xmlns:shaper="http://www.shapertools.com/namespaces/shaper" xmlns:xlink="http://www.w3.org/1999/xlink" y="0cm"><path d="M0,0 L-0,0.75 -0.3,0.75 -0.3,1.75 -0,1.75 -0,3.25 -0.3,3.25 -0.3,4.25 -0,4.25 -0,5.75 -0.3,5.75 -0.3,6.75 -0,6.75 -0,8.25 -0.3,8.25 -0.3,9.25 -0,9.25 -0,10.75 -0.3,10.75 -0.3,11.75 -0,11.75 -0,13.25 -0.3,13.25 -0.3,14.25 -0,14.25 -0,15.75 -0.3,15.75 -0.3,16.75 -0,16.75 -0,18.25 -0.3,18.25 -0.3,19.25 -0,19.25 -0,20.75 -0.3,20.75 -0.3,21.75 -0,21.75 -0,23.25 -0.3,23.25 -0.3,24.25 -0,24.25 -0,25 25,25 25,24.25 25.3,24.25 25.3,23.25 25,23.25 25,21.75 25.3,21.75 25.3,20.75 25,20.75 25,19.25 25.3,19.25 25.3,18.25 25,18.25 25,16.75 25.3,16.75 25.3,15.75 25,15.75 25,14.25 25.3,14.25 25.3,13.25 25,13.25 25,11.75 25.3,11.75 25.3,10.75 25,10.75 25,9.25 25.3,9.25 25.3,8.25 25,8.25 25,6.75 25.3,6.75 25.3,5.75 25,5.75 25,4.25 25.3,4.25 25.3,3.25 25,3.25 25,1.75 25.3,1.75 25.3,0.75 25,0.75 25,0 0,0z" fill="rgb(0,0,0)" shaper:cutDepth="0.003" shaper:pathType="exterior" transform="matrix(1,0,0,-1,0.3,25)" vector-effect="non-scaling-stroke" /><path d="M23.8,5.25 L23.8,6.25 23.5,6.25 23.5,5.25 23.8,5.25z" fill="rgb(255,255,255)" shaper:cutDepth="0.003" shaper:pathType="interior" stroke="rgb(0,0,0)" transform="matrix(1,0,0,-1,0.3,25)" vector-effect="non-scaling-stroke" /><path d="M13.95,1.05 L13.95,0.75 14.95,0.75 14.95,1.05 13.95,1.05z" fill="rgb(255,255,255)" shaper:cutDepth="0.003" shaper:pathType="interior" stroke="rgb(0,0,0)" transform="matrix(1,0,0,-1,0.3,25)" vector-effect="non-scaling-stroke" /><path d="M1.2,1.75 L1.2,0.75 1.5,0.75 1.5,1.75 1.2,1.75z" fill="rgb(255,255,255)" shaper:cutDepth="0.003" shaper:pathType="interior" stroke="rgb(0,0,0)" transform="matrix(1,0,0,-1,0.3,25)" vector-effect="non-scaling-stroke" /><path d="M17.85,23.95 L18.85,23.95 18.85,24.25 17.85,24.25 17.85,23.95z" fill="rgb(255,255,255)" shaper:cutDepth="0.003" shaper:pathType="interior" stroke="rgb(0,0,0)" transform="matrix(1,0,0,-1,0.3,25)" vector-effect="non-scaling-stroke" /><path d="M13.95,23.95 L14.95,23.95 14.95,24.25 13.95,24.25 13.95,23.95z" fill="rgb(255,255,255)" shaper:cutDepth="0.003" shaper:pathType="interior" stroke="rgb(0,0,0)" transform="matrix(1,0,0,-1,0.3,25)" vector-effect="non-scaling-stroke" /><path d="M1.5,24.25 L1.2,24.25 1.2,23.25 1.5,23.25 1.5,24.25z" fill="rgb(255,255,255)" shaper:cutDepth="0.003" shaper:pathType="interior" stroke="rgb(0,0,0)" transform="matrix(1,0,0,-1,0.3,25)" vector-effect="non-scaling-stroke" /><path d="M2.25,23.95 L3.25,23.95 3.25,24.25 2.25,24.25 2.25,23.95z" fill="rgb(255,255,255)" shaper:cutDepth="0.003" shaper:pathType="interior" stroke="rgb(0,0,0)" transform="matrix(1,0,0,-1,0.3,25)" vector-effect="non-scaling-stroke" /><path d="M23.8,18.75 L23.8,19.75 23.5,19.75 23.5,18.75 23.8,18.75z" fill="rgb(255,255,255)" shaper:cutDepth="0.003" shaper:pathType="interior" stroke="rgb(0,0,0)" transform="matrix(1,0,0,-1,0.3,25)" vector-effect="non-scaling-stroke" /><path d="M1.5,15.25 L1.2,15.25 1.2,14.25 1.5,14.25 1.5,15.25z" fill="rgb(255,255,255)" shaper:cutDepth="0.003" shaper:pathType="interior" stroke="rgb(0,0,0)" transform="matrix(1,0,0,-1,0.3,25)" vector-effect="non-scaling-stroke" /><path d="M2.25,1.05 L2.25,0.75 3.25,0.75 3.25,1.05 2.25,1.05z" fill="rgb(255,255,255)" shaper:cutDepth="0.003" shaper:pathType="interior" stroke="rgb(0,0,0)" transform="matrix(1,0,0,-1,0.3,25)" vector-effect="non-scaling-stroke" /><path d="M17.85,1.05 L17.85,0.75 18.85,0.75 18.85,1.05 17.85,1.05z" fill="rgb(255,255,255)" shaper:cutDepth="0.003" shaper:pathType="interior" stroke="rgb(0,0,0)" transform="matrix(1,0,0,-1,0.3,25)" vector-effect="non-scaling-stroke" /><path d="M23.8,9.75 L23.8,10.75 23.5,10.75 23.5,9.75 23.8,9.75z" fill="rgb(255,255,255)" shaper:cutDepth="0.003" shaper:pathType="interior" stroke="rgb(0,0,0)" transform="matrix(1,0,0,-1,0.3,25)" vector-effect="non-scaling-stroke" /><path d="M23.8,0.75 L23.8,1.75 23.5,1.75 23.5,0.75 23.8,0.75z" fill="rgb(255,255,255)" shaper:cutDepth="0.003" shaper:pathType="interior" stroke="rgb(0,0,0)" transform="matrix(1,0,0,-1,0.3,25)" vector-effect="non-scaling-stroke" /><path d="M10.05,1.05 L10.05,0.75 11.05,0.75 11.05,1.05 10.05,1.05z" fill="rgb(255,255,255)" shaper:cutDepth="0.003" shaper:pathType="interior" stroke="rgb(0,0,0)" transform="matrix(1,0,0,-1,0.3,25)" vector-effect="non-scaling-stroke" /><path d="M1.5,6.25 L1.2,6.25 1.2,5.25 1.5,5.25 1.5,6.25z" fill="rgb(255,255,255)" shaper:cutDepth="0.003" shaper:pathType="interior" stroke="rgb(0,0,0)" transform="matrix(1,0,0,-1,0.3,25)" vector-effect="non-scaling-stroke" /><path d="M21.75,23.95 L22.75,23.95 22.75,24.25 21.75,24.25 21.75,23.95z" fill="rgb(255,255,255)" shaper:cutDepth="0.003" shaper:pathType="interior" stroke="rgb(0,0,0)" transform="matrix(1,0,0,-1,0.3,25)" vector-effect="non-scaling-stroke" /><path d="M10.05,23.95 L11.05,23.95 11.05,24.25 10.05,24.25 10.05,23.95z" fill="rgb(255,255,255)" shaper:cutDepth="0.003" shaper:pathType="interior" stroke="rgb(0,0,0)" transform="matrix(1,0,0,-1,0.3,25)" vector-effect="non-scaling-stroke" /><path d="M1.5,19.75 L1.2,19.75 1.2,18.75 1.5,18.75 1.5,19.75z" fill="rgb(255,255,255)" shaper:cutDepth="0.003" shaper:pathType="interior" stroke="rgb(0,0,0)" transform="matrix(1,0,0,-1,0.3,25)" vector-effect="non-scaling-stroke" /><path d="M6.15,23.95 L7.15,23.95 7.15,24.25 6.15,24.25 6.15,23.95z" fill="rgb(255,255,255)" shaper:cutDepth="0.003" shaper:pathType="interior" stroke="rgb(0,0,0)" transform="matrix(1,0,0,-1,0.3,25)" vector-effect="non-scaling-stroke" /><path d="M23.8,23.25 L23.8,24.25 23.5,24.25 23.5,23.25 23.8,23.25z" fill="rgb(255,255,255)" shaper:cutDepth="0.003" shaper:pathType="interior" stroke="rgb(0,0,0)" transform="matrix(1,0,0,-1,0.3,25)" vector-effect="non-scaling-stroke" /><path d="M1.5,10.75 L1.2,10.75 1.2,9.75 1.5,9.75 1.5,10.75z" fill="rgb(255,255,255)" shaper:cutDepth="0.003" shaper:pathType="interior" stroke="rgb(0,0,0)" transform="matrix(1,0,0,-1,0.3,25)" vector-effect="non-scaling-stroke" /><path d="M6.15,1.05 L6.15,0.75 7.15,0.75 7.15,1.05 6.15,1.05z" fill="rgb(255,255,255)" shaper:cutDepth="0.003" shaper:pathType="interior" stroke="rgb(0,0,0)" transform="matrix(1,0,0,-1,0.3,25)" vector-effect="non-scaling-stroke" /><path d="M21.75,1.05 L21.75,0.75 22.75,0.75 22.75,1.05 21.75,1.05z" fill="rgb(255,255,255)" shaper:cutDepth="0.003" shaper:pathType="interior" stroke="rgb(0,0,0)" transform="matrix(1,0,0,-1,0.3,25)" vector-effect="non-scaling-stroke" /><path d="M23.8,14.25 L23.8,15.25 23.5,15.25 23.5,14.25 23.8,14.25z" fill="rgb(255,255,255)" shaper:cutDepth="0.003" shaper:pathType="interior" stroke="rgb(0,0,0)" transform="matrix(1,0,0,-1,0.3,25)" vector-effect="non-scaling-stroke" /><path d="M3.6,11.7 L6.8,11.7 A0.8,0.8 270 0,1 6.8,13.3 L3.6,13.3 A0.8,0.8 90 0,1 3.6,11.7z" fill="rgb(255,255,255)" shaper:cutDepth="0.003" shaper:pathType="interior" stroke="rgb(0,0,0)" transform="matrix(1,0,0,-1,0.3,25)" vector-effect="non-scaling-stroke" /><path d="M13.1,14.0155445 a0.275,0.275 0 1,1 0.55,0 a0.275,0.275 0 1,1 -0.55,0z" fill="rgb(255,255,255)" shaper:cutDepth="0.003" shaper:pathType="interior" stroke="rgb(0,0,0)" transform="matrix(1,0,0,-1,0.3,25)" vector-effect="non-scaling-stroke" /><path d="M10.475,12.5 a0.275,0.275 0 1,1 0.55,0 a0.275,0.275 0 1,1 -0.55,0z" fill="rgb(255,255,255)" shaper:cutDepth="0.003" shaper:pathType="interior" stroke="rgb(0,0,0)" transform="matrix(1,0,0,-1,0.3,25)" vector-effect="non-scaling-stroke" /><path d="M11.4,12.5 a1.1,1.1 0 1,1 2.2,0 a1.1,1.1 0 1,1 -2.2,0z" fill="rgb(255,255,255)" shaper:cutDepth="0.003" shaper:pathType="interior" stroke="rgb(0,0,0)" transform="matrix(1,0,0,-1,0.3,25)" vector-effect="non-scaling-stroke" /><path d="M13.1,10.9844555 a0.275,0.275 0 1,1 0.55,0 a0.275,0.275 0 1,1 -0.55,0z" fill="rgb(255,255,255)" shaper:cutDepth="0.003" shaper:pathType="interior" stroke="rgb(0,0,0)" transform="matrix(1,0,0,-1,0.3,25)" vector-effect="non-scaling-stroke" /></svg>