<?xml version="1.0" encoding="utf-8"?>
<!-- Generator: Fusion 360, Shaper Origin Export Add-In, Version 1.5.0  -->
<svg enable-background="new 0 0 25.6 25" height="25cm" shaper:fusionaddin="version:1.5.0" version="1.1" viewBox="0 0 25.6 25" width="25.6cm" x="0cm" xml:space="preserve" xmlns="http://www.w3.org/2000/svg" xmlns:shaper="http://www.shapertools.com/namespaces/shaper" xmlns:xlink="http://www.w3.org/1999/xlink" y="0cm"><path d="M25.6,24.25 L25.3,24.25 25.3,23.25 25.6,23.25 25.6,21.75 25.3,21.75 25.3,20.75 25.6,20.75 25.6,19.25 25.3,19.25 25.3,18.25 25.6,18.25 25.6,16.75 25.3,16.75 25.3,15.75 25.6,15.75 25.6,14.25 25.3,14.25 25.3,13.25 25.6,13.25 25.6,11.75 25.3,11.75 25.3,10.75 25.6,10.75 25.6,9.25 25.3,9.25 25.3,8.25 25.6,8.25 25.6,6.75 25.3,6.75 25.3,5.75 25.6,5.75 25.6,4.25 25.3,4.25 25.3,3.25 25.6,3.25 25.6,1.75 25.3,1.75 25.3,0.75 25.6,0.75 25.6,-0 0,0 0,0.75 0.3,0.75 0.3,1.75 -0,1.75 0,3.25 0.3,3.25 0.3,4.25 -0,4.25 0,5.75 0.3,5.75 0.3,6.75 -0,6.75 0,8.25 0.3,8.25 0.3,9.25 -0,9.25 0,10.75 0.3,10.75 0.3,11.75 0,11.75 0,13.25 0.3,13.25 0.3,14.25 0,14.25 0,15.75 0.3,15.75 0.3,16.75 0,16.75 0,18.25 0.3,18.25 0.3,19.25 0,19.25 0,20.75 0.3,20.75 0.3,21.75 0,21.75 0,23.25 0.3,23.25 0.3,24.25 0,24.25 0,25 25.6,25 25.6,24.25z" fill="rgb(0,0,0)" shaper:cutDepth="0.003" shaper:pathType="exterior" transform="matrix(1,0,0,-1,0,25)" vector-effect="non-scaling-stroke" /><path d="M22.225,11 a0.175,0.175 0 1,1 0.35,0 a0.175,0.175 0 1,1 -0.35,0z" fill="rgb(255,255,255)" shaper:cutDepth="0.003" shaper:pathType="interior" stroke="rgb(0,0,0)" transform="matrix(1,0,0,-1,0,25)" vector-effect="non-scaling-stroke" /><path d="M19.225,11 a0.175,0.175 0 1,1 0.35,0 a0.175,0.175 0 1,1 -0.35,0z" fill="rgb(255,255,255)" shaper:cutDepth="0.003" shaper:pathType="interior" stroke="rgb(0,0,0)" transform="matrix(1,0,0,-1,0,25)" vector-effect="non-scaling-stroke" /><path d="M22.225,14 a0.175,0.175 0 1,1 0.35,0 a0.175,0.175 0 1,1 -0.35,0z" fill="rgb(255,255,255)" shaper:cutDepth="0.003" shaper:pathType="interior" stroke="rgb(0,0,0)" transform="matrix(1,0,0,-1,0,25)" vector-effect="non-scaling-stroke" /><path d="M19.225,14 a0.175,0.175 0 1,1 0.35,0 a0.175,0.175 0 1,1 -0.35,0z" fill="rgb(255,255,255)" shaper:cutDepth="0.003" shaper:pathType="interior" stroke="rgb(0,0,0)" transform="matrix(1,0,0,-1,0,25)" vector-effect="non-scaling-stroke" /></svg>