<?xml version="1.0" encoding="utf-8"?>
<!-- Generator: Fusion 360, Shaper Origin Export Add-In, Version 1.5.0  -->
<svg enable-background="new 0 0 23.1 22" height="22cm" shaper:fusionaddin="version:1.5.0" version="1.1" viewBox="0 0 23.1 22" width="23.1cm" x="0cm" xml:space="preserve" xmlns="http://www.w3.org/2000/svg" xmlns:shaper="http://www.shapertools.com/namespaces/shaper" xmlns:xlink="http://www.w3.org/1999/xlink" y="0cm"><path d="M22.8,22 L22.8,21.25 22.5,21.25 22.5,20.25 22.8,20.25 22.8,17.35 22.5,17.35 22.5,16.35 22.8,16.35 22.8,13.45 22.5,13.45 22.5,12.45 22.8,12.45 22.8,9.55 22.5,9.55 22.5,8.55 22.8,8.55 22.8,5.65 22.5,5.65 22.5,4.65 22.8,4.65 22.8,1.75 22.5,1.75 22.5,0.75 22.8,0.75 22.8,0 0,0 -0,0.75 -0.3,0.75 -0.3,1.75 -0,1.75 -0,4.65 -0.3,4.65 -0.3,5.65 -0,5.65 -0,8.55 -0.3,8.55 -0.3,9.55 -0,9.55 -0,12.45 -0.3,12.45 -0.3,13.45 -0,13.45 -0,16.35 -0.3,16.35 -0.3,17.35 -0,17.35 -0,20.25 -0.3,20.25 -0.3,21.25 -0,21.25 -0,22 22.8,22z" fill="rgb(0,0,0)" shaper:cutDepth="0.003" shaper:pathType="exterior" transform="matrix(1,0,0,-1,0.3,22)" vector-effect="non-scaling-stroke" /></svg>