<?xml version="1.0" encoding="UTF-8" standalone="no"?>
<!DOCTYPE svg PUBLIC "-//W3C//DTD SVG 1.1//EN" "http://www.w3.org/Graphics/SVG/1.1/DTD/svg11.dtd">
<svg width="100%" height="100%" viewBox="0 0 709 233" version="1.1" xmlns="http://www.w3.org/2000/svg" xmlns:xlink="http://www.w3.org/1999/xlink" xml:space="preserve" xmlns:serif="http://www.serif.com/" style="fill-rule:evenodd;clip-rule:evenodd;stroke-linejoin:round;stroke-miterlimit:2;">
    <g transform="matrix(1,0,0,-1,0,232.441)">
        <rect x="0" y="0" width="708.661" height="232.441" style="fill:white;fill-rule:nonzero;stroke:rgb(255,0,0);stroke-width:1px;"/>
    </g>
    <g transform="matrix(1,0,0,-1,0,232.441)">
        <path d="M472.252,70.866C472.252,65.579 476.603,61.228 481.89,61.228C487.177,61.228 491.528,65.579 491.528,70.866C491.528,76.153 487.177,80.504 481.89,80.504C476.603,80.504 472.252,76.153 472.252,70.866L472.252,70.866Z" style="fill:white;fill-rule:nonzero;stroke:rgb(255,0,0);stroke-width:1px;stroke-linejoin:miter;stroke-miterlimit:4;"/>
    </g>
    <g transform="matrix(1,0,0,-1,0,232.441)">
        <path d="M415.559,70.866C415.559,65.579 419.91,61.228 425.197,61.228C430.484,61.228 434.835,65.579 434.835,70.866C434.835,76.153 430.484,80.504 425.197,80.504C419.91,80.504 415.559,76.153 415.559,70.866L415.559,70.866Z" style="fill:white;fill-rule:nonzero;stroke:rgb(255,0,0);stroke-width:1px;stroke-linejoin:miter;stroke-miterlimit:4;"/>
    </g>
    <g transform="matrix(1,0,0,-1,0,232.441)">
        <path d="M528.945,70.866C528.945,65.579 533.296,61.228 538.583,61.228C543.87,61.228 548.22,65.579 548.22,70.866C548.22,76.153 543.87,80.504 538.583,80.504C533.296,80.504 528.945,76.153 528.945,70.866L528.945,70.866Z" style="fill:white;fill-rule:nonzero;stroke:rgb(255,0,0);stroke-width:1px;stroke-linejoin:miter;stroke-miterlimit:4;"/>
    </g>
    <g transform="matrix(1,0,0,-1,0,232.441)">
        <path d="M41.811,70.866C41.811,54.927 54.927,41.811 70.866,41.811C86.805,41.811 99.921,54.927 99.921,70.866C99.921,86.805 86.805,99.921 70.866,99.921C54.927,99.921 41.811,86.805 41.811,70.866Z" style="fill:white;fill-rule:nonzero;stroke:rgb(255,0,0);stroke-width:1px;stroke-linejoin:miter;stroke-miterlimit:4;"/>
    </g>
    <g transform="matrix(1,0,0,-1,0,232.441)">
        <path d="M598.819,70.866C598.819,49.484 616.413,31.89 637.795,31.89C659.177,31.89 676.772,49.484 676.772,70.866C676.772,92.248 659.177,109.843 637.795,109.843C616.413,109.843 598.819,92.248 598.819,70.866Z" style="fill:white;fill-rule:nonzero;stroke:rgb(255,0,0);stroke-width:1px;stroke-linejoin:miter;stroke-miterlimit:4;"/>
    </g>
    <g transform="matrix(1,0,0,1,-141.443,25.1142)">
        <g transform="matrix(24,0,0,24,168.531,20.3345)">
            <path d="M0.05,-0L0.05,-0.7L0.209,-0.7L0.362,-0.3L0.515,-0.7L0.674,-0.7L0.674,-0L0.534,-0L0.534,-0.36L0.396,-0L0.328,-0L0.19,-0.36L0.19,-0L0.05,-0ZM0.1,-0.05L0.14,-0.05L0.14,-0.63L0.362,-0.05L0.584,-0.63L0.584,-0.05L0.624,-0.05L0.624,-0.65L0.549,-0.65L0.362,-0.161L0.175,-0.65L0.1,-0.65L0.1,-0.05Z" style="fill-rule:nonzero;"/>
        </g>
        <g transform="matrix(24,0,0,24,185.907,20.3345)">
            <path d="M0.05,-0L0.05,-0.7L0.398,-0.7L0.398,-0.564L0.19,-0.564L0.19,-0.418L0.378,-0.418L0.378,-0.282L0.19,-0.282L0.19,-0.136L0.398,-0.136L0.398,-0L0.05,-0ZM0.1,-0.049L0.348,-0.049L0.348,-0.087L0.14,-0.087L0.14,-0.331L0.328,-0.331L0.328,-0.369L0.14,-0.369L0.14,-0.613L0.348,-0.613L0.348,-0.651L0.1,-0.651L0.1,-0.049Z" style="fill-rule:nonzero;"/>
        </g>
        <g transform="matrix(24,0,0,24,196.179,20.3345)">
            <path d="M0.05,-0L0.05,-0.7L0.277,-0.7C0.344,-0.7 0.399,-0.679 0.442,-0.637C0.485,-0.595 0.506,-0.541 0.506,-0.476C0.506,-0.421 0.489,-0.372 0.456,-0.331C0.423,-0.289 0.375,-0.263 0.312,-0.254L0.56,-0L0.364,-0L0.19,-0.179L0.19,-0L0.05,-0ZM0.19,-0.388L0.277,-0.388C0.303,-0.388 0.324,-0.396 0.341,-0.413C0.358,-0.43 0.366,-0.451 0.366,-0.476C0.366,-0.501 0.358,-0.522 0.341,-0.539C0.324,-0.556 0.303,-0.564 0.277,-0.564L0.19,-0.564L0.19,-0.388ZM0.1,-0.05L0.14,-0.05L0.14,-0.301L0.386,-0.05L0.441,-0.05L0.196,-0.301L0.277,-0.301C0.33,-0.301 0.373,-0.317 0.406,-0.35C0.439,-0.383 0.456,-0.425 0.456,-0.476C0.456,-0.527 0.439,-0.569 0.406,-0.602C0.373,-0.635 0.33,-0.651 0.277,-0.651L0.1,-0.651L0.1,-0.05ZM0.14,-0.339L0.14,-0.613L0.277,-0.613C0.318,-0.613 0.351,-0.6 0.377,-0.575C0.403,-0.549 0.416,-0.516 0.416,-0.476C0.416,-0.436 0.403,-0.403 0.377,-0.378C0.351,-0.352 0.318,-0.339 0.277,-0.339L0.14,-0.339Z" style="fill-rule:nonzero;"/>
        </g>
        <g transform="matrix(24,0,0,24,209.043,20.3345)">
            <path d="M0.416,-0.05C0.375,-0.01 0.323,0.01 0.259,0.01C0.195,0.01 0.142,-0.01 0.102,-0.05C0.061,-0.09 0.04,-0.141 0.04,-0.204L0.04,-0.496C0.04,-0.559 0.061,-0.61 0.102,-0.65C0.142,-0.69 0.195,-0.71 0.259,-0.71C0.323,-0.71 0.376,-0.69 0.417,-0.65C0.458,-0.61 0.478,-0.559 0.478,-0.496L0.478,-0.46L0.338,-0.46L0.338,-0.496C0.338,-0.519 0.331,-0.537 0.316,-0.552C0.301,-0.567 0.282,-0.574 0.259,-0.574C0.236,-0.574 0.217,-0.567 0.202,-0.552C0.187,-0.537 0.18,-0.519 0.18,-0.496L0.18,-0.204C0.18,-0.181 0.187,-0.163 0.202,-0.148C0.217,-0.133 0.236,-0.126 0.259,-0.126C0.282,-0.126 0.301,-0.133 0.316,-0.148C0.331,-0.163 0.338,-0.181 0.338,-0.204L0.338,-0.24L0.478,-0.24L0.478,-0.204C0.478,-0.141 0.457,-0.09 0.416,-0.05ZM0.259,-0.039C0.306,-0.039 0.345,-0.053 0.376,-0.082C0.407,-0.11 0.424,-0.146 0.427,-0.19L0.387,-0.19C0.384,-0.156 0.371,-0.129 0.348,-0.108C0.324,-0.087 0.294,-0.077 0.259,-0.077C0.222,-0.077 0.191,-0.089 0.167,-0.113C0.142,-0.136 0.13,-0.167 0.13,-0.204L0.13,-0.496C0.13,-0.533 0.142,-0.564 0.167,-0.588C0.191,-0.611 0.222,-0.623 0.259,-0.623C0.294,-0.623 0.324,-0.613 0.348,-0.592C0.371,-0.571 0.384,-0.544 0.387,-0.51L0.427,-0.51C0.424,-0.554 0.407,-0.59 0.376,-0.619C0.345,-0.647 0.306,-0.661 0.259,-0.661C0.21,-0.661 0.169,-0.646 0.138,-0.615C0.106,-0.584 0.09,-0.544 0.09,-0.496L0.09,-0.204C0.09,-0.156 0.106,-0.117 0.138,-0.086C0.169,-0.055 0.21,-0.039 0.259,-0.039Z" style="fill-rule:nonzero;"/>
        </g>
        <g transform="matrix(24,0,0,24,221.475,20.3345)">
            <path d="M0,-0L0.175,-0.7L0.325,-0.7L0.5,-0L0.355,-0L0.329,-0.11L0.171,-0.11L0.144,-0L0,-0ZM0.203,-0.246L0.297,-0.246L0.25,-0.441L0.203,-0.246ZM0.064,-0.05L0.105,-0.05L0.132,-0.159L0.368,-0.159L0.395,-0.05L0.436,-0.05L0.286,-0.65L0.214,-0.65L0.064,-0.05ZM0.141,-0.197L0.25,-0.63L0.359,-0.197L0.141,-0.197Z" style="fill-rule:nonzero;"/>
        </g>
        <g transform="matrix(24,0,0,24,233.475,20.3345)">
            <path d="M0.149,-0L0.149,-0.564L0.01,-0.564L0.01,-0.7L0.428,-0.7L0.428,-0.564L0.289,-0.564L0.289,-0L0.149,-0ZM0.199,-0.05L0.239,-0.05L0.239,-0.613L0.378,-0.613L0.378,-0.651L0.06,-0.651L0.06,-0.613L0.199,-0.613L0.199,-0.05Z" style="fill-rule:nonzero;"/>
        </g>
        <g transform="matrix(24,0,0,24,243.987,20.3345)">
            <path d="M0.416,-0.05C0.375,-0.01 0.323,0.01 0.259,0.01C0.195,0.01 0.142,-0.01 0.102,-0.05C0.061,-0.09 0.04,-0.141 0.04,-0.204L0.04,-0.496C0.04,-0.559 0.061,-0.61 0.102,-0.65C0.142,-0.69 0.195,-0.71 0.259,-0.71C0.323,-0.71 0.376,-0.69 0.417,-0.65C0.458,-0.61 0.478,-0.559 0.478,-0.496L0.478,-0.204C0.478,-0.141 0.457,-0.09 0.416,-0.05ZM0.202,-0.148C0.217,-0.133 0.236,-0.126 0.259,-0.126C0.282,-0.126 0.301,-0.133 0.316,-0.148C0.331,-0.163 0.338,-0.181 0.338,-0.204L0.338,-0.496C0.338,-0.519 0.331,-0.537 0.316,-0.552C0.301,-0.567 0.282,-0.574 0.259,-0.574C0.236,-0.574 0.217,-0.567 0.202,-0.552C0.187,-0.537 0.18,-0.519 0.18,-0.496L0.18,-0.204C0.18,-0.181 0.187,-0.163 0.202,-0.148ZM0.137,-0.085C0.169,-0.054 0.21,-0.039 0.259,-0.039C0.308,-0.039 0.349,-0.055 0.381,-0.086C0.412,-0.117 0.428,-0.156 0.428,-0.204L0.428,-0.496C0.428,-0.544 0.412,-0.584 0.381,-0.615C0.349,-0.646 0.308,-0.661 0.259,-0.661C0.21,-0.661 0.169,-0.646 0.138,-0.615C0.106,-0.584 0.09,-0.544 0.09,-0.496L0.09,-0.204C0.09,-0.156 0.106,-0.116 0.137,-0.085ZM0.351,-0.112C0.327,-0.089 0.296,-0.077 0.259,-0.077C0.222,-0.077 0.191,-0.089 0.167,-0.113C0.142,-0.136 0.13,-0.167 0.13,-0.204L0.13,-0.496C0.13,-0.533 0.142,-0.564 0.167,-0.588C0.191,-0.611 0.222,-0.623 0.259,-0.623C0.296,-0.623 0.327,-0.611 0.352,-0.588C0.376,-0.564 0.388,-0.533 0.388,-0.496L0.388,-0.204C0.388,-0.167 0.376,-0.136 0.351,-0.112Z" style="fill-rule:nonzero;"/>
        </g>
        <g transform="matrix(24,0,0,24,256.419,20.3345)">
            <path d="M0.05,-0L0.05,-0.7L0.277,-0.7C0.344,-0.7 0.399,-0.679 0.442,-0.637C0.485,-0.595 0.506,-0.541 0.506,-0.476C0.506,-0.421 0.489,-0.372 0.456,-0.331C0.423,-0.289 0.375,-0.263 0.312,-0.254L0.56,-0L0.364,-0L0.19,-0.179L0.19,-0L0.05,-0ZM0.19,-0.388L0.277,-0.388C0.303,-0.388 0.324,-0.396 0.341,-0.413C0.358,-0.43 0.366,-0.451 0.366,-0.476C0.366,-0.501 0.358,-0.522 0.341,-0.539C0.324,-0.556 0.303,-0.564 0.277,-0.564L0.19,-0.564L0.19,-0.388ZM0.1,-0.05L0.14,-0.05L0.14,-0.301L0.386,-0.05L0.441,-0.05L0.196,-0.301L0.277,-0.301C0.33,-0.301 0.373,-0.317 0.406,-0.35C0.439,-0.383 0.456,-0.425 0.456,-0.476C0.456,-0.527 0.439,-0.569 0.406,-0.602C0.373,-0.635 0.33,-0.651 0.277,-0.651L0.1,-0.651L0.1,-0.05ZM0.14,-0.339L0.14,-0.613L0.277,-0.613C0.318,-0.613 0.351,-0.6 0.377,-0.575C0.403,-0.549 0.416,-0.516 0.416,-0.476C0.416,-0.436 0.403,-0.403 0.377,-0.378C0.351,-0.352 0.318,-0.339 0.277,-0.339L0.14,-0.339Z" style="fill-rule:nonzero;"/>
        </g>
    </g>
    <g transform="matrix(1,0,0,1,-114.129,197.364)">
        <g transform="matrix(12,0,0,12,168.531,20.3345)">
            <path d="M0.204,-0.306L0.204,-0L0.09,-0L0.09,-0.754L0.219,-0.754C0.282,-0.754 0.33,-0.75 0.362,-0.741C0.395,-0.732 0.424,-0.715 0.448,-0.691C0.492,-0.649 0.513,-0.595 0.513,-0.531C0.513,-0.462 0.49,-0.407 0.444,-0.367C0.398,-0.326 0.335,-0.306 0.257,-0.306L0.204,-0.306ZM0.204,-0.412L0.247,-0.412C0.351,-0.412 0.403,-0.452 0.403,-0.532C0.403,-0.61 0.349,-0.649 0.242,-0.649L0.204,-0.649L0.204,-0.412Z" style="fill-rule:nonzero;"/>
        </g>
        <g transform="matrix(12,0,0,12,174.666,20.3345)">
            <path d="M0.047,-0.241C0.047,-0.31 0.071,-0.368 0.121,-0.417C0.17,-0.465 0.23,-0.489 0.3,-0.489C0.371,-0.489 0.431,-0.465 0.481,-0.416C0.53,-0.368 0.554,-0.308 0.554,-0.237C0.554,-0.166 0.53,-0.106 0.48,-0.058C0.431,-0.01 0.37,0.014 0.298,0.014C0.227,0.014 0.167,-0.011 0.119,-0.06C0.071,-0.108 0.047,-0.168 0.047,-0.241ZM0.159,-0.239C0.159,-0.192 0.172,-0.154 0.197,-0.126C0.223,-0.098 0.258,-0.084 0.3,-0.084C0.343,-0.084 0.378,-0.098 0.403,-0.126C0.429,-0.154 0.442,-0.191 0.442,-0.237C0.442,-0.283 0.429,-0.32 0.403,-0.348C0.377,-0.376 0.343,-0.39 0.3,-0.39C0.258,-0.39 0.224,-0.376 0.198,-0.348C0.172,-0.32 0.159,-0.284 0.159,-0.239Z" style="fill-rule:nonzero;"/>
        </g>
        <g transform="matrix(12,0,0,12,181.651,20.3345)">
            <path d="M0.129,-0.476L0.253,-0.204L0.388,-0.519L0.523,-0.204L0.646,-0.476L0.769,-0.476L0.52,0.036L0.388,-0.271L0.254,0.036L0.005,-0.476L0.129,-0.476Z" style="fill-rule:nonzero;"/>
        </g>
        <g transform="matrix(12,0,0,12,190.756,20.3345)">
            <path d="M0.502,-0.212L0.162,-0.212C0.165,-0.173 0.177,-0.142 0.2,-0.119C0.222,-0.096 0.251,-0.084 0.286,-0.084C0.313,-0.084 0.336,-0.091 0.354,-0.104C0.372,-0.117 0.392,-0.141 0.414,-0.176L0.507,-0.125C0.493,-0.1 0.477,-0.079 0.461,-0.062C0.445,-0.044 0.428,-0.03 0.41,-0.019C0.392,-0.008 0.372,0.001 0.351,0.006C0.33,0.011 0.307,0.014 0.282,0.014C0.211,0.014 0.154,-0.009 0.111,-0.055C0.068,-0.101 0.047,-0.161 0.047,-0.237C0.047,-0.313 0.068,-0.373 0.109,-0.42C0.151,-0.466 0.207,-0.489 0.276,-0.489C0.346,-0.489 0.402,-0.466 0.442,-0.422C0.483,-0.378 0.503,-0.316 0.503,-0.238L0.502,-0.212ZM0.39,-0.302C0.374,-0.36 0.337,-0.39 0.279,-0.39C0.265,-0.39 0.253,-0.388 0.241,-0.384C0.229,-0.379 0.219,-0.374 0.209,-0.366C0.2,-0.358 0.191,-0.349 0.185,-0.338C0.178,-0.328 0.173,-0.315 0.169,-0.302L0.39,-0.302Z" style="fill-rule:nonzero;"/>
        </g>
        <g transform="matrix(12,0,0,12,197.395,20.3345)">
            <path d="M0.069,-0.476L0.179,-0.476L0.179,-0.433C0.199,-0.454 0.217,-0.469 0.233,-0.477C0.249,-0.485 0.268,-0.489 0.29,-0.489C0.319,-0.489 0.349,-0.479 0.38,-0.46L0.33,-0.36C0.309,-0.375 0.289,-0.382 0.269,-0.382C0.209,-0.382 0.179,-0.337 0.179,-0.247L0.179,-0L0.069,-0L0.069,-0.476Z" style="fill-rule:nonzero;"/>
        </g>
    </g>
    <g transform="matrix(1,0,0,1,342.307,197.364)">
        <g transform="matrix(12,0,0,12,168.531,20.3345)">
            <path d="M0.09,-0L0.09,-0.754L0.204,-0.754C0.254,-0.754 0.294,-0.75 0.324,-0.742C0.354,-0.734 0.38,-0.721 0.401,-0.703C0.422,-0.683 0.439,-0.66 0.451,-0.631C0.464,-0.602 0.47,-0.573 0.47,-0.543C0.47,-0.489 0.45,-0.443 0.408,-0.406C0.448,-0.392 0.48,-0.368 0.503,-0.334C0.526,-0.3 0.538,-0.261 0.538,-0.216C0.538,-0.157 0.517,-0.107 0.476,-0.066C0.451,-0.041 0.422,-0.024 0.391,-0.014C0.357,-0.005 0.314,-0 0.263,-0L0.09,-0ZM0.204,-0.43L0.24,-0.43C0.282,-0.43 0.313,-0.44 0.333,-0.458C0.352,-0.477 0.362,-0.505 0.362,-0.541C0.362,-0.576 0.352,-0.603 0.332,-0.622C0.312,-0.64 0.283,-0.649 0.244,-0.649L0.204,-0.649L0.204,-0.43ZM0.204,-0.107L0.274,-0.107C0.326,-0.107 0.364,-0.117 0.388,-0.137C0.413,-0.159 0.426,-0.187 0.426,-0.22C0.426,-0.253 0.414,-0.28 0.389,-0.302C0.365,-0.324 0.323,-0.335 0.262,-0.335L0.204,-0.335L0.204,-0.107Z" style="fill-rule:nonzero;"/>
        </g>
        <g transform="matrix(12,0,0,12,175.627,20.3345)">
            <path d="M0.069,-0.476L0.179,-0.476L0.179,-0.433C0.199,-0.454 0.217,-0.469 0.233,-0.477C0.249,-0.485 0.268,-0.489 0.29,-0.489C0.319,-0.489 0.349,-0.479 0.38,-0.46L0.33,-0.36C0.309,-0.375 0.289,-0.382 0.269,-0.382C0.209,-0.382 0.179,-0.337 0.179,-0.247L0.179,-0L0.069,-0L0.069,-0.476Z" style="fill-rule:nonzero;"/>
        </g>
        <g transform="matrix(12,0,0,12,180.297,20.3345)">
            <path d="M0.179,-0.476L0.179,-0L0.069,-0L0.069,-0.476L0.179,-0.476ZM0.053,-0.673C0.053,-0.693 0.06,-0.709 0.074,-0.723C0.088,-0.737 0.104,-0.744 0.124,-0.744C0.144,-0.744 0.161,-0.737 0.175,-0.723C0.189,-0.709 0.196,-0.693 0.196,-0.673C0.196,-0.653 0.189,-0.636 0.175,-0.622C0.161,-0.608 0.144,-0.601 0.125,-0.601C0.105,-0.601 0.088,-0.608 0.074,-0.622C0.06,-0.636 0.053,-0.653 0.053,-0.673Z" style="fill-rule:nonzero;"/>
        </g>
        <g transform="matrix(12,0,0,12,183.285,20.3345)">
            <path d="M0.529,-0.011C0.529,0.011 0.529,0.031 0.527,0.048C0.526,0.065 0.524,0.08 0.521,0.093C0.513,0.129 0.498,0.16 0.475,0.186C0.432,0.235 0.373,0.26 0.298,0.26C0.234,0.26 0.182,0.243 0.141,0.208C0.099,0.173 0.074,0.125 0.068,0.063L0.178,0.063C0.182,0.086 0.189,0.104 0.199,0.117C0.222,0.146 0.255,0.161 0.299,0.161C0.379,0.161 0.419,0.112 0.419,0.013L0.419,-0.053C0.376,-0.009 0.326,0.014 0.269,0.014C0.204,0.014 0.151,-0.01 0.109,-0.057C0.068,-0.104 0.047,-0.164 0.047,-0.235C0.047,-0.304 0.066,-0.363 0.105,-0.412C0.147,-0.463 0.202,-0.489 0.27,-0.489C0.33,-0.489 0.38,-0.466 0.419,-0.422L0.419,-0.476L0.529,-0.476L0.529,-0.011ZM0.424,-0.237C0.424,-0.283 0.411,-0.32 0.387,-0.348C0.362,-0.376 0.33,-0.39 0.291,-0.39C0.249,-0.39 0.216,-0.375 0.192,-0.344C0.17,-0.316 0.159,-0.28 0.159,-0.236C0.159,-0.193 0.17,-0.158 0.192,-0.13C0.216,-0.1 0.249,-0.084 0.291,-0.084C0.333,-0.084 0.366,-0.1 0.39,-0.13C0.413,-0.158 0.424,-0.194 0.424,-0.237Z" style="fill-rule:nonzero;"/>
        </g>
        <g transform="matrix(12,0,0,12,190.469,20.3345)">
            <path d="M0.069,-0.825L0.179,-0.825L0.179,-0.436C0.218,-0.471 0.261,-0.489 0.309,-0.489C0.362,-0.489 0.405,-0.471 0.438,-0.437C0.465,-0.406 0.479,-0.358 0.479,-0.292L0.479,-0L0.369,-0L0.369,-0.281C0.369,-0.319 0.362,-0.347 0.348,-0.364C0.335,-0.381 0.313,-0.39 0.283,-0.39C0.245,-0.39 0.218,-0.378 0.202,-0.354C0.187,-0.33 0.179,-0.289 0.179,-0.23L0.179,-0L0.069,-0L0.069,-0.825Z" style="fill-rule:nonzero;"/>
        </g>
        <g transform="matrix(12,0,0,12,197.049,20.3345)">
            <path d="M0.183,-0.373L0.183,-0L0.073,-0L0.073,-0.373L0.026,-0.373L0.026,-0.476L0.073,-0.476L0.073,-0.65L0.183,-0.65L0.183,-0.476L0.268,-0.476L0.268,-0.373L0.183,-0.373Z" style="fill-rule:nonzero;"/>
        </g>
        <g transform="matrix(12,0,0,12,200.33,20.3345)">
            <path d="M0.069,-0.476L0.18,-0.476L0.18,-0.432C0.218,-0.47 0.261,-0.489 0.31,-0.489C0.365,-0.489 0.408,-0.471 0.439,-0.437C0.466,-0.407 0.479,-0.359 0.479,-0.292L0.479,-0L0.369,-0L0.369,-0.266C0.369,-0.313 0.362,-0.345 0.349,-0.363C0.336,-0.381 0.313,-0.39 0.28,-0.39C0.243,-0.39 0.217,-0.378 0.202,-0.354C0.187,-0.33 0.18,-0.289 0.18,-0.229L0.18,-0L0.069,-0L0.069,-0.476Z" style="fill-rule:nonzero;"/>
        </g>
        <g transform="matrix(12,0,0,12,206.91,20.3345)">
            <path d="M0.502,-0.212L0.162,-0.212C0.165,-0.173 0.177,-0.142 0.2,-0.119C0.222,-0.096 0.251,-0.084 0.286,-0.084C0.313,-0.084 0.336,-0.091 0.354,-0.104C0.372,-0.117 0.392,-0.141 0.414,-0.176L0.507,-0.125C0.493,-0.1 0.477,-0.079 0.461,-0.062C0.445,-0.044 0.428,-0.03 0.41,-0.019C0.392,-0.008 0.372,0.001 0.351,0.006C0.33,0.011 0.307,0.014 0.282,0.014C0.211,0.014 0.154,-0.009 0.111,-0.055C0.068,-0.101 0.047,-0.161 0.047,-0.237C0.047,-0.313 0.068,-0.373 0.109,-0.42C0.151,-0.466 0.207,-0.489 0.276,-0.489C0.346,-0.489 0.402,-0.466 0.442,-0.422C0.483,-0.378 0.503,-0.316 0.503,-0.238L0.502,-0.212ZM0.39,-0.302C0.374,-0.36 0.337,-0.39 0.279,-0.39C0.265,-0.39 0.253,-0.388 0.241,-0.384C0.229,-0.379 0.219,-0.374 0.209,-0.366C0.2,-0.358 0.191,-0.349 0.185,-0.338C0.178,-0.328 0.173,-0.315 0.169,-0.302L0.39,-0.302Z" style="fill-rule:nonzero;"/>
        </g>
        <g transform="matrix(12,0,0,12,213.549,20.3345)">
            <path d="M0.346,-0.395L0.255,-0.346C0.241,-0.375 0.223,-0.39 0.202,-0.39C0.192,-0.39 0.183,-0.387 0.176,-0.38C0.169,-0.373 0.165,-0.365 0.165,-0.354C0.165,-0.336 0.186,-0.318 0.229,-0.3C0.287,-0.275 0.326,-0.252 0.346,-0.231C0.366,-0.21 0.376,-0.181 0.376,-0.146C0.376,-0.1 0.36,-0.061 0.326,-0.03C0.293,-0.001 0.253,0.014 0.207,0.014C0.127,0.014 0.07,-0.025 0.037,-0.103L0.131,-0.146C0.144,-0.124 0.154,-0.109 0.161,-0.103C0.174,-0.091 0.19,-0.084 0.208,-0.084C0.246,-0.084 0.264,-0.101 0.264,-0.135C0.264,-0.155 0.25,-0.173 0.221,-0.19C0.21,-0.195 0.199,-0.201 0.188,-0.206C0.177,-0.211 0.166,-0.217 0.154,-0.222C0.122,-0.238 0.1,-0.253 0.087,-0.269C0.07,-0.289 0.062,-0.314 0.062,-0.346C0.062,-0.387 0.076,-0.421 0.104,-0.448C0.133,-0.475 0.169,-0.489 0.21,-0.489C0.271,-0.489 0.316,-0.457 0.346,-0.395Z" style="fill-rule:nonzero;"/>
        </g>
        <g transform="matrix(12,0,0,12,218.418,20.3345)">
            <path d="M0.346,-0.395L0.255,-0.346C0.241,-0.375 0.223,-0.39 0.202,-0.39C0.192,-0.39 0.183,-0.387 0.176,-0.38C0.169,-0.373 0.165,-0.365 0.165,-0.354C0.165,-0.336 0.186,-0.318 0.229,-0.3C0.287,-0.275 0.326,-0.252 0.346,-0.231C0.366,-0.21 0.376,-0.181 0.376,-0.146C0.376,-0.1 0.36,-0.061 0.326,-0.03C0.293,-0.001 0.253,0.014 0.207,0.014C0.127,0.014 0.07,-0.025 0.037,-0.103L0.131,-0.146C0.144,-0.124 0.154,-0.109 0.161,-0.103C0.174,-0.091 0.19,-0.084 0.208,-0.084C0.246,-0.084 0.264,-0.101 0.264,-0.135C0.264,-0.155 0.25,-0.173 0.221,-0.19C0.21,-0.195 0.199,-0.201 0.188,-0.206C0.177,-0.211 0.166,-0.217 0.154,-0.222C0.122,-0.238 0.1,-0.253 0.087,-0.269C0.07,-0.289 0.062,-0.314 0.062,-0.346C0.062,-0.387 0.076,-0.421 0.104,-0.448C0.133,-0.475 0.169,-0.489 0.21,-0.489C0.271,-0.489 0.316,-0.457 0.346,-0.395Z" style="fill-rule:nonzero;"/>
        </g>
    </g>
    <g transform="matrix(1,0,0,1,436.08,91.7219)">
        <g transform="matrix(12,0,0,12,168.531,20.3345)">
            <path d="M0.204,-0.459L0.529,-0.459L0.529,-0.754L0.643,-0.754L0.643,-0L0.529,-0L0.529,-0.352L0.204,-0.352L0.204,-0L0.09,-0L0.09,-0.754L0.204,-0.754L0.204,-0.459Z" style="fill-rule:nonzero;"/>
        </g>
        <g transform="matrix(12,0,0,12,177.332,20.3345)">
            <path d="M0.047,-0.241C0.047,-0.31 0.071,-0.368 0.121,-0.417C0.17,-0.465 0.23,-0.489 0.3,-0.489C0.371,-0.489 0.431,-0.465 0.481,-0.416C0.53,-0.368 0.554,-0.308 0.554,-0.237C0.554,-0.166 0.53,-0.106 0.48,-0.058C0.431,-0.01 0.37,0.014 0.298,0.014C0.227,0.014 0.167,-0.011 0.119,-0.06C0.071,-0.108 0.047,-0.168 0.047,-0.241ZM0.159,-0.239C0.159,-0.192 0.172,-0.154 0.197,-0.126C0.223,-0.098 0.258,-0.084 0.3,-0.084C0.343,-0.084 0.378,-0.098 0.403,-0.126C0.429,-0.154 0.442,-0.191 0.442,-0.237C0.442,-0.283 0.429,-0.32 0.403,-0.348C0.377,-0.376 0.343,-0.39 0.3,-0.39C0.258,-0.39 0.224,-0.376 0.198,-0.348C0.172,-0.32 0.159,-0.284 0.159,-0.239Z" style="fill-rule:nonzero;"/>
        </g>
        <g transform="matrix(12,0,0,12,184.545,20.3345)">
            <rect x="0.069" y="-0.825" width="0.11" height="0.825" style="fill-rule:nonzero;"/>
        </g>
        <g transform="matrix(12,0,0,12,187.533,20.3345)">
            <path d="M0.42,-0.825L0.53,-0.825L0.53,-0L0.42,-0L0.42,-0.05C0.377,-0.007 0.328,0.014 0.273,0.014C0.208,0.014 0.154,-0.01 0.111,-0.058C0.068,-0.106 0.047,-0.167 0.047,-0.239C0.047,-0.31 0.068,-0.369 0.111,-0.417C0.153,-0.465 0.206,-0.489 0.271,-0.489C0.326,-0.489 0.376,-0.466 0.42,-0.42L0.42,-0.825ZM0.159,-0.239C0.159,-0.194 0.171,-0.157 0.196,-0.128C0.221,-0.099 0.252,-0.084 0.291,-0.084C0.331,-0.084 0.364,-0.098 0.389,-0.126C0.414,-0.155 0.427,-0.192 0.427,-0.237C0.427,-0.281 0.414,-0.318 0.389,-0.347C0.364,-0.375 0.332,-0.39 0.292,-0.39C0.254,-0.39 0.222,-0.375 0.197,-0.347C0.172,-0.318 0.159,-0.282 0.159,-0.239Z" style="fill-rule:nonzero;"/>
        </g>
        <g transform="matrix(12,0,0,12,198.432,20.3345)">
            <path d="M0.183,-0.373L0.183,-0L0.073,-0L0.073,-0.373L0.026,-0.373L0.026,-0.476L0.073,-0.476L0.073,-0.65L0.183,-0.65L0.183,-0.476L0.268,-0.476L0.268,-0.373L0.183,-0.373Z" style="fill-rule:nonzero;"/>
        </g>
        <g transform="matrix(12,0,0,12,201.795,20.3345)">
            <path d="M0.047,-0.241C0.047,-0.31 0.071,-0.368 0.121,-0.417C0.17,-0.465 0.23,-0.489 0.3,-0.489C0.371,-0.489 0.431,-0.465 0.481,-0.416C0.53,-0.368 0.554,-0.308 0.554,-0.237C0.554,-0.166 0.53,-0.106 0.48,-0.058C0.431,-0.01 0.37,0.014 0.298,0.014C0.227,0.014 0.167,-0.011 0.119,-0.06C0.071,-0.108 0.047,-0.168 0.047,-0.241ZM0.159,-0.239C0.159,-0.192 0.172,-0.154 0.197,-0.126C0.223,-0.098 0.258,-0.084 0.3,-0.084C0.343,-0.084 0.378,-0.098 0.403,-0.126C0.429,-0.154 0.442,-0.191 0.442,-0.237C0.442,-0.283 0.429,-0.32 0.403,-0.348C0.377,-0.376 0.343,-0.39 0.3,-0.39C0.258,-0.39 0.224,-0.376 0.198,-0.348C0.172,-0.32 0.159,-0.284 0.159,-0.239Z" style="fill-rule:nonzero;"/>
        </g>
        <g transform="matrix(12,0,0,12,212.711,20.3345)">
            <path d="M0.346,-0.395L0.255,-0.346C0.241,-0.375 0.223,-0.39 0.202,-0.39C0.192,-0.39 0.183,-0.387 0.176,-0.38C0.169,-0.373 0.165,-0.365 0.165,-0.354C0.165,-0.336 0.186,-0.318 0.229,-0.3C0.287,-0.275 0.326,-0.252 0.346,-0.231C0.366,-0.21 0.376,-0.181 0.376,-0.146C0.376,-0.1 0.36,-0.061 0.326,-0.03C0.293,-0.001 0.253,0.014 0.207,0.014C0.127,0.014 0.07,-0.025 0.037,-0.103L0.131,-0.146C0.144,-0.124 0.154,-0.109 0.161,-0.103C0.174,-0.091 0.19,-0.084 0.208,-0.084C0.246,-0.084 0.264,-0.101 0.264,-0.135C0.264,-0.155 0.25,-0.173 0.221,-0.19C0.21,-0.195 0.199,-0.201 0.188,-0.206C0.177,-0.211 0.166,-0.217 0.154,-0.222C0.122,-0.238 0.1,-0.253 0.087,-0.269C0.07,-0.289 0.062,-0.314 0.062,-0.346C0.062,-0.387 0.076,-0.421 0.104,-0.448C0.133,-0.475 0.169,-0.489 0.21,-0.489C0.271,-0.489 0.316,-0.457 0.346,-0.395Z" style="fill-rule:nonzero;"/>
        </g>
        <g transform="matrix(12,0,0,12,217.58,20.3345)">
            <path d="M0.183,-0.373L0.183,-0L0.073,-0L0.073,-0.373L0.026,-0.373L0.026,-0.476L0.073,-0.476L0.073,-0.65L0.183,-0.65L0.183,-0.476L0.268,-0.476L0.268,-0.373L0.183,-0.373Z" style="fill-rule:nonzero;"/>
        </g>
        <g transform="matrix(12,0,0,12,220.967,20.3345)">
            <path d="M0.42,-0.476L0.53,-0.476L0.53,-0L0.42,-0L0.42,-0.05C0.375,-0.007 0.326,0.014 0.274,0.014C0.208,0.014 0.154,-0.01 0.111,-0.058C0.068,-0.106 0.047,-0.167 0.047,-0.239C0.047,-0.311 0.068,-0.37 0.111,-0.417C0.153,-0.465 0.207,-0.489 0.271,-0.489C0.326,-0.489 0.376,-0.466 0.42,-0.42L0.42,-0.476ZM0.159,-0.239C0.159,-0.194 0.171,-0.157 0.196,-0.128C0.221,-0.099 0.252,-0.084 0.291,-0.084C0.331,-0.084 0.364,-0.098 0.389,-0.126C0.414,-0.155 0.427,-0.192 0.427,-0.237C0.427,-0.281 0.414,-0.318 0.389,-0.347C0.364,-0.375 0.332,-0.39 0.292,-0.39C0.254,-0.39 0.222,-0.375 0.197,-0.347C0.172,-0.318 0.159,-0.282 0.159,-0.239Z" style="fill-rule:nonzero;"/>
        </g>
        <g transform="matrix(12,0,0,12,228.162,20.3345)">
            <path d="M0.069,-0.476L0.179,-0.476L0.179,-0.433C0.199,-0.454 0.217,-0.469 0.233,-0.477C0.249,-0.485 0.268,-0.489 0.29,-0.489C0.319,-0.489 0.349,-0.479 0.38,-0.46L0.33,-0.36C0.309,-0.375 0.289,-0.382 0.269,-0.382C0.209,-0.382 0.179,-0.337 0.179,-0.247L0.179,-0L0.069,-0L0.069,-0.476Z" style="fill-rule:nonzero;"/>
        </g>
        <g transform="matrix(12,0,0,12,233.084,20.3345)">
            <path d="M0.183,-0.373L0.183,-0L0.073,-0L0.073,-0.373L0.026,-0.373L0.026,-0.476L0.073,-0.476L0.073,-0.65L0.183,-0.65L0.183,-0.476L0.268,-0.476L0.268,-0.373L0.183,-0.373Z" style="fill-rule:nonzero;"/>
        </g>
    </g>
    <g transform="matrix(1,0,0,1,427.517,197.352)">
        <g transform="matrix(12,0,0,12,168.531,20.3345)">
            <path d="M0.204,-0.306L0.204,-0L0.09,-0L0.09,-0.754L0.219,-0.754C0.282,-0.754 0.33,-0.75 0.362,-0.741C0.395,-0.732 0.424,-0.715 0.448,-0.691C0.492,-0.649 0.513,-0.595 0.513,-0.531C0.513,-0.462 0.49,-0.407 0.444,-0.367C0.398,-0.326 0.335,-0.306 0.257,-0.306L0.204,-0.306ZM0.204,-0.412L0.247,-0.412C0.351,-0.412 0.403,-0.452 0.403,-0.532C0.403,-0.61 0.349,-0.649 0.242,-0.649L0.204,-0.649L0.204,-0.412Z" style="fill-rule:nonzero;"/>
        </g>
        <g transform="matrix(12,0,0,12,175.012,20.3345)">
            <path d="M0.069,-0.476L0.179,-0.476L0.179,-0.433C0.199,-0.454 0.217,-0.469 0.233,-0.477C0.249,-0.485 0.268,-0.489 0.29,-0.489C0.319,-0.489 0.349,-0.479 0.38,-0.46L0.33,-0.36C0.309,-0.375 0.289,-0.382 0.269,-0.382C0.209,-0.382 0.179,-0.337 0.179,-0.247L0.179,-0L0.069,-0L0.069,-0.476Z" style="fill-rule:nonzero;"/>
        </g>
        <g transform="matrix(12,0,0,12,179.418,20.3345)">
            <path d="M0.502,-0.212L0.162,-0.212C0.165,-0.173 0.177,-0.142 0.2,-0.119C0.222,-0.096 0.251,-0.084 0.286,-0.084C0.313,-0.084 0.336,-0.091 0.354,-0.104C0.372,-0.117 0.392,-0.141 0.414,-0.176L0.507,-0.125C0.493,-0.1 0.477,-0.079 0.461,-0.062C0.445,-0.044 0.428,-0.03 0.41,-0.019C0.392,-0.008 0.372,0.001 0.351,0.006C0.33,0.011 0.307,0.014 0.282,0.014C0.211,0.014 0.154,-0.009 0.111,-0.055C0.068,-0.101 0.047,-0.161 0.047,-0.237C0.047,-0.313 0.068,-0.373 0.109,-0.42C0.151,-0.466 0.207,-0.489 0.276,-0.489C0.346,-0.489 0.402,-0.466 0.442,-0.422C0.483,-0.378 0.503,-0.316 0.503,-0.238L0.502,-0.212ZM0.39,-0.302C0.374,-0.36 0.337,-0.39 0.279,-0.39C0.265,-0.39 0.253,-0.388 0.241,-0.384C0.229,-0.379 0.219,-0.374 0.209,-0.366C0.2,-0.358 0.191,-0.349 0.185,-0.338C0.178,-0.328 0.173,-0.315 0.169,-0.302L0.39,-0.302Z" style="fill-rule:nonzero;"/>
        </g>
        <g transform="matrix(12,0,0,12,186.057,20.3345)">
            <path d="M0.346,-0.395L0.255,-0.346C0.241,-0.375 0.223,-0.39 0.202,-0.39C0.192,-0.39 0.183,-0.387 0.176,-0.38C0.169,-0.373 0.165,-0.365 0.165,-0.354C0.165,-0.336 0.186,-0.318 0.229,-0.3C0.287,-0.275 0.326,-0.252 0.346,-0.231C0.366,-0.21 0.376,-0.181 0.376,-0.146C0.376,-0.1 0.36,-0.061 0.326,-0.03C0.293,-0.001 0.253,0.014 0.207,0.014C0.127,0.014 0.07,-0.025 0.037,-0.103L0.131,-0.146C0.144,-0.124 0.154,-0.109 0.161,-0.103C0.174,-0.091 0.19,-0.084 0.208,-0.084C0.246,-0.084 0.264,-0.101 0.264,-0.135C0.264,-0.155 0.25,-0.173 0.221,-0.19C0.21,-0.195 0.199,-0.201 0.188,-0.206C0.177,-0.211 0.166,-0.217 0.154,-0.222C0.122,-0.238 0.1,-0.253 0.087,-0.269C0.07,-0.289 0.062,-0.314 0.062,-0.346C0.062,-0.387 0.076,-0.421 0.104,-0.448C0.133,-0.475 0.169,-0.489 0.21,-0.489C0.271,-0.489 0.316,-0.457 0.346,-0.395Z" style="fill-rule:nonzero;"/>
        </g>
        <g transform="matrix(12,0,0,12,190.926,20.3345)">
            <path d="M0.346,-0.395L0.255,-0.346C0.241,-0.375 0.223,-0.39 0.202,-0.39C0.192,-0.39 0.183,-0.387 0.176,-0.38C0.169,-0.373 0.165,-0.365 0.165,-0.354C0.165,-0.336 0.186,-0.318 0.229,-0.3C0.287,-0.275 0.326,-0.252 0.346,-0.231C0.366,-0.21 0.376,-0.181 0.376,-0.146C0.376,-0.1 0.36,-0.061 0.326,-0.03C0.293,-0.001 0.253,0.014 0.207,0.014C0.127,0.014 0.07,-0.025 0.037,-0.103L0.131,-0.146C0.144,-0.124 0.154,-0.109 0.161,-0.103C0.174,-0.091 0.19,-0.084 0.208,-0.084C0.246,-0.084 0.264,-0.101 0.264,-0.135C0.264,-0.155 0.25,-0.173 0.221,-0.19C0.21,-0.195 0.199,-0.201 0.188,-0.206C0.177,-0.211 0.166,-0.217 0.154,-0.222C0.122,-0.238 0.1,-0.253 0.087,-0.269C0.07,-0.289 0.062,-0.314 0.062,-0.346C0.062,-0.387 0.076,-0.421 0.104,-0.448C0.133,-0.475 0.169,-0.489 0.21,-0.489C0.271,-0.489 0.316,-0.457 0.346,-0.395Z" style="fill-rule:nonzero;"/>
        </g>
        <g transform="matrix(12,0,0,12,199.498,20.3345)">
            <path d="M0.183,-0.373L0.183,-0L0.073,-0L0.073,-0.373L0.026,-0.373L0.026,-0.476L0.073,-0.476L0.073,-0.65L0.183,-0.65L0.183,-0.476L0.268,-0.476L0.268,-0.373L0.183,-0.373Z" style="fill-rule:nonzero;"/>
        </g>
        <g transform="matrix(12,0,0,12,202.861,20.3345)">
            <path d="M0.047,-0.241C0.047,-0.31 0.071,-0.368 0.121,-0.417C0.17,-0.465 0.23,-0.489 0.3,-0.489C0.371,-0.489 0.431,-0.465 0.481,-0.416C0.53,-0.368 0.554,-0.308 0.554,-0.237C0.554,-0.166 0.53,-0.106 0.48,-0.058C0.431,-0.01 0.37,0.014 0.298,0.014C0.227,0.014 0.167,-0.011 0.119,-0.06C0.071,-0.108 0.047,-0.168 0.047,-0.241ZM0.159,-0.239C0.159,-0.192 0.172,-0.154 0.197,-0.126C0.223,-0.098 0.258,-0.084 0.3,-0.084C0.343,-0.084 0.378,-0.098 0.403,-0.126C0.429,-0.154 0.442,-0.191 0.442,-0.237C0.442,-0.283 0.429,-0.32 0.403,-0.348C0.377,-0.376 0.343,-0.39 0.3,-0.39C0.258,-0.39 0.224,-0.376 0.198,-0.348C0.172,-0.32 0.159,-0.284 0.159,-0.239Z" style="fill-rule:nonzero;"/>
        </g>
        <g transform="matrix(12,0,0,12,213.777,20.3345)">
            <path d="M0.439,-0.455L0.439,-0.309C0.414,-0.34 0.392,-0.361 0.372,-0.372C0.353,-0.384 0.33,-0.39 0.303,-0.39C0.262,-0.39 0.228,-0.375 0.2,-0.346C0.173,-0.317 0.159,-0.281 0.159,-0.237C0.159,-0.193 0.172,-0.156 0.199,-0.127C0.225,-0.099 0.259,-0.084 0.301,-0.084C0.327,-0.084 0.35,-0.09 0.371,-0.102C0.39,-0.113 0.413,-0.134 0.439,-0.166L0.439,-0.021C0.395,0.002 0.35,0.014 0.306,0.014C0.232,0.014 0.171,-0.01 0.121,-0.058C0.072,-0.105 0.047,-0.165 0.047,-0.236C0.047,-0.307 0.072,-0.367 0.122,-0.416C0.172,-0.464 0.234,-0.489 0.307,-0.489C0.354,-0.489 0.398,-0.478 0.439,-0.455Z" style="fill-rule:nonzero;"/>
        </g>
        <g transform="matrix(12,0,0,12,219.807,20.3345)">
            <path d="M0.069,-0.825L0.179,-0.825L0.179,-0.436C0.218,-0.471 0.261,-0.489 0.309,-0.489C0.362,-0.489 0.405,-0.471 0.438,-0.437C0.465,-0.406 0.479,-0.358 0.479,-0.292L0.479,-0L0.369,-0L0.369,-0.281C0.369,-0.319 0.362,-0.347 0.348,-0.364C0.335,-0.381 0.313,-0.39 0.283,-0.39C0.245,-0.39 0.218,-0.378 0.202,-0.354C0.187,-0.33 0.179,-0.289 0.179,-0.23L0.179,-0L0.069,-0L0.069,-0.825Z" style="fill-rule:nonzero;"/>
        </g>
        <g transform="matrix(12,0,0,12,226.387,20.3345)">
            <path d="M0.42,-0.476L0.53,-0.476L0.53,-0L0.42,-0L0.42,-0.05C0.375,-0.007 0.326,0.014 0.274,0.014C0.208,0.014 0.154,-0.01 0.111,-0.058C0.068,-0.106 0.047,-0.167 0.047,-0.239C0.047,-0.311 0.068,-0.37 0.111,-0.417C0.153,-0.465 0.207,-0.489 0.271,-0.489C0.326,-0.489 0.376,-0.466 0.42,-0.42L0.42,-0.476ZM0.159,-0.239C0.159,-0.194 0.171,-0.157 0.196,-0.128C0.221,-0.099 0.252,-0.084 0.291,-0.084C0.331,-0.084 0.364,-0.098 0.389,-0.126C0.414,-0.155 0.427,-0.192 0.427,-0.237C0.427,-0.281 0.414,-0.318 0.389,-0.347C0.364,-0.375 0.332,-0.39 0.292,-0.39C0.254,-0.39 0.222,-0.375 0.197,-0.347C0.172,-0.318 0.159,-0.282 0.159,-0.239Z" style="fill-rule:nonzero;"/>
        </g>
        <g transform="matrix(12,0,0,12,233.582,20.3345)">
            <path d="M0.069,-0.476L0.18,-0.476L0.18,-0.432C0.218,-0.47 0.261,-0.489 0.31,-0.489C0.365,-0.489 0.408,-0.471 0.439,-0.437C0.466,-0.407 0.479,-0.359 0.479,-0.292L0.479,-0L0.369,-0L0.369,-0.266C0.369,-0.313 0.362,-0.345 0.349,-0.363C0.336,-0.381 0.313,-0.39 0.28,-0.39C0.243,-0.39 0.217,-0.378 0.202,-0.354C0.187,-0.33 0.18,-0.289 0.18,-0.229L0.18,-0L0.069,-0L0.069,-0.476Z" style="fill-rule:nonzero;"/>
        </g>
        <g transform="matrix(12,0,0,12,240.162,20.3345)">
            <path d="M0.529,-0.011C0.529,0.011 0.529,0.031 0.527,0.048C0.526,0.065 0.524,0.08 0.521,0.093C0.513,0.129 0.498,0.16 0.475,0.186C0.432,0.235 0.373,0.26 0.298,0.26C0.234,0.26 0.182,0.243 0.141,0.208C0.099,0.173 0.074,0.125 0.068,0.063L0.178,0.063C0.182,0.086 0.189,0.104 0.199,0.117C0.222,0.146 0.255,0.161 0.299,0.161C0.379,0.161 0.419,0.112 0.419,0.013L0.419,-0.053C0.376,-0.009 0.326,0.014 0.269,0.014C0.204,0.014 0.151,-0.01 0.109,-0.057C0.068,-0.104 0.047,-0.164 0.047,-0.235C0.047,-0.304 0.066,-0.363 0.105,-0.412C0.147,-0.463 0.202,-0.489 0.27,-0.489C0.33,-0.489 0.38,-0.466 0.419,-0.422L0.419,-0.476L0.529,-0.476L0.529,-0.011ZM0.424,-0.237C0.424,-0.283 0.411,-0.32 0.387,-0.348C0.362,-0.376 0.33,-0.39 0.291,-0.39C0.249,-0.39 0.216,-0.375 0.192,-0.344C0.17,-0.316 0.159,-0.28 0.159,-0.236C0.159,-0.193 0.17,-0.158 0.192,-0.13C0.216,-0.1 0.249,-0.084 0.291,-0.084C0.333,-0.084 0.366,-0.1 0.39,-0.13C0.413,-0.158 0.424,-0.194 0.424,-0.237Z" style="fill-rule:nonzero;"/>
        </g>
        <g transform="matrix(12,0,0,12,247.346,20.3345)">
            <path d="M0.502,-0.212L0.162,-0.212C0.165,-0.173 0.177,-0.142 0.2,-0.119C0.222,-0.096 0.251,-0.084 0.286,-0.084C0.313,-0.084 0.336,-0.091 0.354,-0.104C0.372,-0.117 0.392,-0.141 0.414,-0.176L0.507,-0.125C0.493,-0.1 0.477,-0.079 0.461,-0.062C0.445,-0.044 0.428,-0.03 0.41,-0.019C0.392,-0.008 0.372,0.001 0.351,0.006C0.33,0.011 0.307,0.014 0.282,0.014C0.211,0.014 0.154,-0.009 0.111,-0.055C0.068,-0.101 0.047,-0.161 0.047,-0.237C0.047,-0.313 0.068,-0.373 0.109,-0.42C0.151,-0.466 0.207,-0.489 0.276,-0.489C0.346,-0.489 0.402,-0.466 0.442,-0.422C0.483,-0.378 0.503,-0.316 0.503,-0.238L0.502,-0.212ZM0.39,-0.302C0.374,-0.36 0.337,-0.39 0.279,-0.39C0.265,-0.39 0.253,-0.388 0.241,-0.384C0.229,-0.379 0.219,-0.374 0.209,-0.366C0.2,-0.358 0.191,-0.349 0.185,-0.338C0.178,-0.328 0.173,-0.315 0.169,-0.302L0.39,-0.302Z" style="fill-rule:nonzero;"/>
        </g>
    </g>
    <g transform="matrix(1,0,0,1,297.213,197.364)">
        <g transform="matrix(12,0,0,12,168.531,20.3345)">
            <path d="M0.204,-0.306L0.204,-0L0.09,-0L0.09,-0.754L0.219,-0.754C0.282,-0.754 0.33,-0.75 0.362,-0.741C0.395,-0.732 0.424,-0.715 0.448,-0.691C0.492,-0.649 0.513,-0.595 0.513,-0.531C0.513,-0.462 0.49,-0.407 0.444,-0.367C0.398,-0.326 0.335,-0.306 0.257,-0.306L0.204,-0.306ZM0.204,-0.412L0.247,-0.412C0.351,-0.412 0.403,-0.452 0.403,-0.532C0.403,-0.61 0.349,-0.649 0.242,-0.649L0.204,-0.649L0.204,-0.412Z" style="fill-rule:nonzero;"/>
        </g>
        <g transform="matrix(12,0,0,12,175.012,20.3345)">
            <path d="M0.069,-0.825L0.179,-0.825L0.179,-0.436C0.218,-0.471 0.261,-0.489 0.309,-0.489C0.362,-0.489 0.405,-0.471 0.438,-0.437C0.465,-0.406 0.479,-0.358 0.479,-0.292L0.479,-0L0.369,-0L0.369,-0.281C0.369,-0.319 0.362,-0.347 0.348,-0.364C0.335,-0.381 0.313,-0.39 0.283,-0.39C0.245,-0.39 0.218,-0.378 0.202,-0.354C0.187,-0.33 0.179,-0.289 0.179,-0.23L0.179,-0L0.069,-0L0.069,-0.825Z" style="fill-rule:nonzero;"/>
        </g>
        <g transform="matrix(12,0,0,12,181.592,20.3345)">
            <path d="M0.42,-0.476L0.53,-0.476L0.53,-0L0.42,-0L0.42,-0.05C0.375,-0.007 0.326,0.014 0.274,0.014C0.208,0.014 0.154,-0.01 0.111,-0.058C0.068,-0.106 0.047,-0.167 0.047,-0.239C0.047,-0.311 0.068,-0.37 0.111,-0.417C0.153,-0.465 0.207,-0.489 0.271,-0.489C0.326,-0.489 0.376,-0.466 0.42,-0.42L0.42,-0.476ZM0.159,-0.239C0.159,-0.194 0.171,-0.157 0.196,-0.128C0.221,-0.099 0.252,-0.084 0.291,-0.084C0.331,-0.084 0.364,-0.098 0.389,-0.126C0.414,-0.155 0.427,-0.192 0.427,-0.237C0.427,-0.281 0.414,-0.318 0.389,-0.347C0.364,-0.375 0.332,-0.39 0.292,-0.39C0.254,-0.39 0.222,-0.375 0.197,-0.347C0.172,-0.318 0.159,-0.282 0.159,-0.239Z" style="fill-rule:nonzero;"/>
        </g>
        <g transform="matrix(12,0,0,12,188.787,20.3345)">
            <path d="M0.346,-0.395L0.255,-0.346C0.241,-0.375 0.223,-0.39 0.202,-0.39C0.192,-0.39 0.183,-0.387 0.176,-0.38C0.169,-0.373 0.165,-0.365 0.165,-0.354C0.165,-0.336 0.186,-0.318 0.229,-0.3C0.287,-0.275 0.326,-0.252 0.346,-0.231C0.366,-0.21 0.376,-0.181 0.376,-0.146C0.376,-0.1 0.36,-0.061 0.326,-0.03C0.293,-0.001 0.253,0.014 0.207,0.014C0.127,0.014 0.07,-0.025 0.037,-0.103L0.131,-0.146C0.144,-0.124 0.154,-0.109 0.161,-0.103C0.174,-0.091 0.19,-0.084 0.208,-0.084C0.246,-0.084 0.264,-0.101 0.264,-0.135C0.264,-0.155 0.25,-0.173 0.221,-0.19C0.21,-0.195 0.199,-0.201 0.188,-0.206C0.177,-0.211 0.166,-0.217 0.154,-0.222C0.122,-0.238 0.1,-0.253 0.087,-0.269C0.07,-0.289 0.062,-0.314 0.062,-0.346C0.062,-0.387 0.076,-0.421 0.104,-0.448C0.133,-0.475 0.169,-0.489 0.21,-0.489C0.271,-0.489 0.316,-0.457 0.346,-0.395Z" style="fill-rule:nonzero;"/>
        </g>
        <g transform="matrix(12,0,0,12,193.656,20.3345)">
            <path d="M0.502,-0.212L0.162,-0.212C0.165,-0.173 0.177,-0.142 0.2,-0.119C0.222,-0.096 0.251,-0.084 0.286,-0.084C0.313,-0.084 0.336,-0.091 0.354,-0.104C0.372,-0.117 0.392,-0.141 0.414,-0.176L0.507,-0.125C0.493,-0.1 0.477,-0.079 0.461,-0.062C0.445,-0.044 0.428,-0.03 0.41,-0.019C0.392,-0.008 0.372,0.001 0.351,0.006C0.33,0.011 0.307,0.014 0.282,0.014C0.211,0.014 0.154,-0.009 0.111,-0.055C0.068,-0.101 0.047,-0.161 0.047,-0.237C0.047,-0.313 0.068,-0.373 0.109,-0.42C0.151,-0.466 0.207,-0.489 0.276,-0.489C0.346,-0.489 0.402,-0.466 0.442,-0.422C0.483,-0.378 0.503,-0.316 0.503,-0.238L0.502,-0.212ZM0.39,-0.302C0.374,-0.36 0.337,-0.39 0.279,-0.39C0.265,-0.39 0.253,-0.388 0.241,-0.384C0.229,-0.379 0.219,-0.374 0.209,-0.366C0.2,-0.358 0.191,-0.349 0.185,-0.338C0.178,-0.328 0.173,-0.315 0.169,-0.302L0.39,-0.302Z" style="fill-rule:nonzero;"/>
        </g>
    </g>
    <g transform="matrix(1,0,0,1,239.433,197.364)">
        <g transform="matrix(12,0,0,12,168.531,20.3345)">
            <path d="M0.517,-0.642L0.424,-0.587C0.407,-0.617 0.391,-0.636 0.375,-0.646C0.359,-0.656 0.338,-0.661 0.312,-0.661C0.28,-0.661 0.254,-0.652 0.233,-0.634C0.213,-0.617 0.202,-0.595 0.202,-0.568C0.202,-0.531 0.229,-0.501 0.284,-0.479L0.359,-0.448C0.421,-0.424 0.465,-0.393 0.494,-0.358C0.522,-0.322 0.536,-0.278 0.536,-0.227C0.536,-0.157 0.513,-0.1 0.467,-0.055C0.42,-0.009 0.362,0.014 0.293,0.014C0.228,0.014 0.174,-0.006 0.131,-0.044C0.089,-0.083 0.063,-0.138 0.053,-0.208L0.168,-0.233C0.173,-0.189 0.182,-0.159 0.195,-0.142C0.219,-0.109 0.253,-0.093 0.298,-0.093C0.333,-0.093 0.363,-0.105 0.386,-0.128C0.41,-0.152 0.421,-0.182 0.421,-0.219C0.421,-0.233 0.419,-0.247 0.415,-0.259C0.411,-0.271 0.405,-0.282 0.396,-0.293C0.388,-0.303 0.376,-0.313 0.363,-0.322C0.349,-0.33 0.333,-0.339 0.314,-0.347L0.241,-0.377C0.138,-0.421 0.086,-0.485 0.086,-0.569C0.086,-0.625 0.108,-0.673 0.151,-0.711C0.195,-0.749 0.249,-0.769 0.313,-0.769C0.4,-0.769 0.468,-0.726 0.517,-0.642Z" style="fill-rule:nonzero;"/>
        </g>
        <g transform="matrix(12,0,0,12,175.527,20.3345)">
            <path d="M0.179,0.259L0.069,0.259L0.069,-0.476L0.179,-0.476L0.179,-0.424C0.222,-0.467 0.272,-0.489 0.327,-0.489C0.392,-0.489 0.446,-0.465 0.488,-0.417C0.531,-0.369 0.553,-0.308 0.553,-0.235C0.553,-0.164 0.531,-0.105 0.489,-0.057C0.446,-0.01 0.393,0.014 0.329,0.014C0.273,0.014 0.223,-0.009 0.179,-0.053L0.179,0.259ZM0.44,-0.235C0.44,-0.28 0.428,-0.318 0.403,-0.346C0.378,-0.375 0.347,-0.39 0.309,-0.39C0.268,-0.39 0.236,-0.376 0.21,-0.348C0.185,-0.32 0.173,-0.283 0.173,-0.237C0.173,-0.193 0.185,-0.156 0.21,-0.127C0.235,-0.099 0.268,-0.084 0.308,-0.084C0.346,-0.084 0.378,-0.099 0.402,-0.127C0.428,-0.156 0.44,-0.192 0.44,-0.235Z" style="fill-rule:nonzero;"/>
        </g>
        <g transform="matrix(12,0,0,12,182.723,20.3345)">
            <path d="M0.502,-0.212L0.162,-0.212C0.165,-0.173 0.177,-0.142 0.2,-0.119C0.222,-0.096 0.251,-0.084 0.286,-0.084C0.313,-0.084 0.336,-0.091 0.354,-0.104C0.372,-0.117 0.392,-0.141 0.414,-0.176L0.507,-0.125C0.493,-0.1 0.477,-0.079 0.461,-0.062C0.445,-0.044 0.428,-0.03 0.41,-0.019C0.392,-0.008 0.372,0.001 0.351,0.006C0.33,0.011 0.307,0.014 0.282,0.014C0.211,0.014 0.154,-0.009 0.111,-0.055C0.068,-0.101 0.047,-0.161 0.047,-0.237C0.047,-0.313 0.068,-0.373 0.109,-0.42C0.151,-0.466 0.207,-0.489 0.276,-0.489C0.346,-0.489 0.402,-0.466 0.442,-0.422C0.483,-0.378 0.503,-0.316 0.503,-0.238L0.502,-0.212ZM0.39,-0.302C0.374,-0.36 0.337,-0.39 0.279,-0.39C0.265,-0.39 0.253,-0.388 0.241,-0.384C0.229,-0.379 0.219,-0.374 0.209,-0.366C0.2,-0.358 0.191,-0.349 0.185,-0.338C0.178,-0.328 0.173,-0.315 0.169,-0.302L0.39,-0.302Z" style="fill-rule:nonzero;"/>
        </g>
        <g transform="matrix(12,0,0,12,189.361,20.3345)">
            <path d="M0.502,-0.212L0.162,-0.212C0.165,-0.173 0.177,-0.142 0.2,-0.119C0.222,-0.096 0.251,-0.084 0.286,-0.084C0.313,-0.084 0.336,-0.091 0.354,-0.104C0.372,-0.117 0.392,-0.141 0.414,-0.176L0.507,-0.125C0.493,-0.1 0.477,-0.079 0.461,-0.062C0.445,-0.044 0.428,-0.03 0.41,-0.019C0.392,-0.008 0.372,0.001 0.351,0.006C0.33,0.011 0.307,0.014 0.282,0.014C0.211,0.014 0.154,-0.009 0.111,-0.055C0.068,-0.101 0.047,-0.161 0.047,-0.237C0.047,-0.313 0.068,-0.373 0.109,-0.42C0.151,-0.466 0.207,-0.489 0.276,-0.489C0.346,-0.489 0.402,-0.466 0.442,-0.422C0.483,-0.378 0.503,-0.316 0.503,-0.238L0.502,-0.212ZM0.39,-0.302C0.374,-0.36 0.337,-0.39 0.279,-0.39C0.265,-0.39 0.253,-0.388 0.241,-0.384C0.229,-0.379 0.219,-0.374 0.209,-0.366C0.2,-0.358 0.191,-0.349 0.185,-0.338C0.178,-0.328 0.173,-0.315 0.169,-0.302L0.39,-0.302Z" style="fill-rule:nonzero;"/>
        </g>
        <g transform="matrix(12,0,0,12,196,20.3345)">
            <path d="M0.42,-0.825L0.53,-0.825L0.53,-0L0.42,-0L0.42,-0.05C0.377,-0.007 0.328,0.014 0.273,0.014C0.208,0.014 0.154,-0.01 0.111,-0.058C0.068,-0.106 0.047,-0.167 0.047,-0.239C0.047,-0.31 0.068,-0.369 0.111,-0.417C0.153,-0.465 0.206,-0.489 0.271,-0.489C0.326,-0.489 0.376,-0.466 0.42,-0.42L0.42,-0.825ZM0.159,-0.239C0.159,-0.194 0.171,-0.157 0.196,-0.128C0.221,-0.099 0.252,-0.084 0.291,-0.084C0.331,-0.084 0.364,-0.098 0.389,-0.126C0.414,-0.155 0.427,-0.192 0.427,-0.237C0.427,-0.281 0.414,-0.318 0.389,-0.347C0.364,-0.375 0.332,-0.39 0.292,-0.39C0.254,-0.39 0.222,-0.375 0.197,-0.347C0.172,-0.318 0.159,-0.282 0.159,-0.239Z" style="fill-rule:nonzero;"/>
        </g>
    </g>
</svg>
