<?xml version="1.0" encoding="utf-8"?>
<!-- Generator: Fusion 360, Shaper Origin Export Add-In, Version 1.5.0  -->
<svg enable-background="new 0 0 23.1 23.5" height="23.5cm" shaper:fusionaddin="version:1.5.0" version="1.1" viewBox="0 0 23.1 23.5" width="23.1cm" x="0cm" xml:space="preserve" xmlns="http://www.w3.org/2000/svg" xmlns:shaper="http://www.shapertools.com/namespaces/shaper" xmlns:xlink="http://www.w3.org/1999/xlink" y="0cm"><path d="M0,22.5 L0,23.5 23.1,23.5 23.1,22.45 22.8,22.45 22.8,21.45 23.1,21.45 23.1,19.5357143 22.8,19.5357143 22.8,18.5357143 23.1,18.5357143 23.1,16.6214286 22.8,16.6214286 22.8,15.6214286 23.1,15.6214286 23.1,13.7071429 22.8,13.7071429 22.8,12.7071429 23.1,12.7071429 23.1,10.7928571 22.8,10.7928571 22.8,9.7928571 23.1,9.7928571 23.1,7.8785714 22.8,7.8785714 22.8,6.8785714 23.1,6.8785714 23.1,4.9642857 22.8,4.9642857 22.8,3.9642857 23.1,3.9642857 23.1,2.05 22.8,2.05 22.8,1.05 23.1,1.05 23.1,0 0,0 0,1 0.3,1 0.3,4.5 0,4.5 0,5.5 0.3,5.5 0.3,9 0,9 0,10 0.3,10 0.3,13.5 0,13.5 0,14.5 0.3,14.5 0.3,18 0,18 0,19 0.3,19 0.3,22.5 0,22.5z" fill="rgb(0,0,0)" shaper:cutDepth="0.003" shaper:pathType="exterior" transform="matrix(1,0,0,-1,-0,23.5)" vector-effect="non-scaling-stroke" /></svg>