<?xml version="1.0" encoding="utf-8"?>
<!-- Generator: Fusion 360, Shaper Origin Export Add-In, Version 1.5.0  -->
<svg enable-background="new 0 0 25 5.6" height="5.6cm" shaper:fusionaddin="version:1.5.0" version="1.1" viewBox="0 0 25 5.6" width="25cm" x="0cm" xml:space="preserve" xmlns="http://www.w3.org/2000/svg" xmlns:shaper="http://www.shapertools.com/namespaces/shaper" xmlns:xlink="http://www.w3.org/1999/xlink" y="0cm"><path d="M4.25,-5.3 L4.25,-5 3.25,-5 3.25,-5.3 1.75,-5.3 1.75,-5 0.75,-5 0.75,-5.3 -0,-5.3 0,0 0.75,-0 0.75,0.3 1.75,0.3 1.75,-0 3.25,-0 3.25,0.3 4.25,0.3 4.25,-0 5.75,-0 5.75,0.3 6.75,0.3 6.75,-0 8.25,-0 8.25,0.3 9.25,0.3 9.25,-0 10.75,-0 10.75,0.3 11.75,0.3 11.75,-0 13.25,-0 13.25,0.3 14.25,0.3 14.25,-0 15.75,-0 15.75,0.3 16.75,0.3 16.75,-0 18.25,-0 18.25,0.3 19.25,0.3 19.25,-0 20.75,-0 20.75,0.3 21.75,0.3 21.75,-0 23.25,-0 23.25,0.3 24.25,0.3 24.25,-0 25,-0 25,-5.3 24.25,-5.3 24.25,-5 23.25,-5 23.25,-5.3 21.75,-5.3 21.75,-5 20.75,-5 20.75,-5.3 19.25,-5.3 19.25,-5 18.25,-5 18.25,-5.3 16.75,-5.3 16.75,-5 15.75,-5 15.75,-5.3 14.25,-5.3 14.25,-5 13.25,-5 13.25,-5.3 11.75,-5.3 11.75,-5 10.75,-5 10.75,-5.3 9.25,-5.3 9.25,-5 8.25,-5 8.25,-5.3 6.75,-5.3 6.75,-5 5.75,-5 5.75,-5.3 4.25,-5.3z" fill="rgb(0,0,0)" shaper:cutDepth="0.003" shaper:pathType="exterior" transform="matrix(1,0,0,-1,0,0.3)" vector-effect="non-scaling-stroke" /></svg>