<?xml version="1.0" encoding="utf-8"?>
<!-- Generator: Fusion 360, Shaper Origin Export Add-In, Version 1.5.0  -->
<svg enable-background="new 0 0 23.5 22.6" height="22.6cm" shaper:fusionaddin="version:1.5.0" version="1.1" viewBox="0 0 23.5 22.6" width="23.5cm" x="0cm" xml:space="preserve" xmlns="http://www.w3.org/2000/svg" xmlns:shaper="http://www.shapertools.com/namespaces/shaper" xmlns:xlink="http://www.w3.org/1999/xlink" y="0cm"><path d="M-22.15,-5.95 L-22.15,-5.65 -22.9,-5.65 -22.9,-4.9 -23.2,-4.9 -23.2,-3.9 -22.9,-3.9 -22.9,-1 -23.2,-1 -23.2,0 -22.9,0 -22.9,2.9 -23.2,2.9 -23.2,3.9 -22.9,3.9 -22.9,6.8 -23.2,6.8 -23.2,7.8 -22.9,7.8 -22.9,10.7 -23.2,10.7 -23.2,11.7 -22.9,11.7 -22.9,14.6 -23.2,14.6 -23.2,15.6 -22.9,15.6 -22.9,16.35 -22.15,16.35 -22.15,16.65 -21.15,16.65 -21.15,16.35 -19.2357143,16.35 -19.2357143,16.65 -18.2357143,16.65 -18.2357143,16.35 -16.3214286,16.35 -16.3214286,16.65 -15.3214286,16.65 -15.3214286,16.35 -13.4071429,16.35 -13.4071429,16.65 -12.4071429,16.65 -12.4071429,16.35 -10.4928571,16.35 -10.4928571,16.65 -9.4928571,16.65 -9.4928571,16.35 -7.5785714,16.35 -7.5785714,16.65 -6.5785714,16.65 -6.5785714,16.35 -4.6642857,16.35 -4.6642857,16.65 -3.6642857,16.65 -3.6642857,16.35 -1.75,16.35 -1.75,16.65 -0.75,16.65 -0.75,16.35 0,16.35 -0,15.6 0.3,15.6 0.3,14.6 -0,14.6 -0,11.7 0.3,11.7 0.3,10.7 -0,10.7 -0,7.8 0.3,7.8 0.3,6.8 0,6.8 -0,3.9 0.3,3.9 0.3,2.9 -0,2.9 -0,0 0.3,0 0.3,-1 -0,-1 -0,-3.9 0.3,-3.9 0.3,-4.9 0,-4.9 -0,-5.65 -0.75,-5.65 -0.75,-5.95 -1.75,-5.95 -1.75,-5.65 -3.6642857,-5.65 -3.6642857,-5.95 -4.6642857,-5.95 -4.6642857,-5.65 -6.5785714,-5.65 -6.5785714,-5.95 -7.5785714,-5.95 -7.5785714,-5.65 -9.4928571,-5.65 -9.4928571,-5.95 -10.4928571,-5.95 -10.4928571,-5.65 -12.4071429,-5.65 -12.4071429,-5.95 -13.4071429,-5.95 -13.4071429,-5.65 -15.3214286,-5.65 -15.3214286,-5.95 -16.3214286,-5.95 -16.3214286,-5.65 -18.2357143,-5.65 -18.2357143,-5.95 -19.2357143,-5.95 -19.2357143,-5.65 -21.15,-5.65 -21.15,-5.95 -22.15,-5.95z" fill="rgb(0,0,0)" shaper:cutDepth="0.003" shaper:pathType="exterior" transform="matrix(1,0,0,-1,23.2,16.65)" vector-effect="non-scaling-stroke" /><path d="M-12.05,5.35 a0.6,0.6 0 1,1 1.2,0 a0.6,0.6 0 1,1 -1.2,0z" fill="rgb(255,255,255)" shaper:cutDepth="0.003" shaper:pathType="interior" stroke="rgb(0,0,0)" transform="matrix(1,0,0,-1,23.2,16.65)" vector-effect="non-scaling-stroke" /></svg>